<svg xmlns="http://www.w3.org/2000/svg" viewBox="0 0 1200 360" width="1200" height="360">
  <defs>
    <linearGradient id="r2" x1="0" y1="0" x2="1" y2="0">
      <stop offset="0" stop-color="#8b5cf6"/>
      <stop offset="0.55" stop-color="#f472b6"/>
      <stop offset="1" stop-color="#fda4af"/>
    </linearGradient>
    <filter id="glow" x="-40%" y="-40%" width="180%" height="180%">
      <feGaussianBlur stdDeviation="10"/>
    </filter>
    <radialGradient id="fade" cx="0.5" cy="0.5" r="0.75">
      <stop offset="0" stop-color="#120a16"/>
      <stop offset="1" stop-color="#080508"/>
    </radialGradient>
  </defs>
  <rect width="1200" height="360" fill="url(#fade)"/>
  <path d="M0 200 C 180 130, 330 260, 500 195 C 545 178, 600 150, 618 178 C 632 200, 610 226, 588 216 C 570 208, 576 186, 596 184 C 660 178, 700 240, 800 240 C 950 240, 1050 150, 1200 195" fill="none" stroke="url(#r2)" stroke-width="7" opacity="0.55" filter="url(#glow)"/>
  <path d="M0 200 C 180 130, 330 260, 500 195 C 545 178, 600 150, 618 178 C 632 200, 610 226, 588 216 C 570 208, 576 186, 596 184 C 660 178, 700 240, 800 240 C 950 240, 1050 150, 1200 195" fill="none" stroke="url(#r2)" stroke-width="1.6"/>
  <path d="M0 245 C 200 190, 340 300, 520 240 S 760 165, 950 225 S 1130 275, 1200 235" fill="none" stroke="url(#r2)" stroke-width="4.5" opacity="0.3" filter="url(#glow)"/>
  <path d="M0 245 C 200 190, 340 300, 520 240 S 760 165, 950 225 S 1130 275, 1200 235" fill="none" stroke="url(#r2)" stroke-width="1" opacity="0.65"/>
</svg>
