<svg xmlns="http://www.w3.org/2000/svg" viewBox="0 0 1200 360" width="1200" height="360">
  <defs>
    <linearGradient id="khipu" x1="0" y1="0" x2="1" y2="0">
      <stop offset="0" stop-color="#3AF4C8"/>
      <stop offset="0.45" stop-color="#34d399"/>
      <stop offset="1" stop-color="#C9B787"/>
    </linearGradient>
    <filter id="glow" x="-40%" y="-40%" width="180%" height="180%">
      <feGaussianBlur stdDeviation="10"/>
    </filter>
    <radialGradient id="fade" cx="0.5" cy="0.45" r="0.75">
      <stop offset="0" stop-color="#0a1210"/>
      <stop offset="1" stop-color="#050808"/>
    </radialGradient>
  </defs>
  <rect width="1200" height="360" fill="url(#fade)"/>
  <path d="M0 245 C 180 150, 340 300, 520 215 S 830 110, 1000 205 S 1150 265, 1200 215" fill="none" stroke="url(#khipu)" stroke-width="7" opacity="0.55" filter="url(#glow)"/>
  <path d="M0 245 C 180 150, 340 300, 520 215 S 830 110, 1000 205 S 1150 265, 1200 215" fill="none" stroke="url(#khipu)" stroke-width="1.6"/>
  <path d="M0 190 C 160 260, 360 120, 540 190 S 840 285, 1010 180 S 1140 140, 1200 185" fill="none" stroke="url(#khipu)" stroke-width="5" opacity="0.32" filter="url(#glow)"/>
  <path d="M0 190 C 160 260, 360 120, 540 190 S 840 285, 1010 180 S 1140 140, 1200 185" fill="none" stroke="url(#khipu)" stroke-width="1" opacity="0.7"/>
</svg>
