<svg xmlns="http://www.w3.org/2000/svg" viewBox="0 0 1200 360" width="1200" height="360">
  <defs>
    <linearGradient id="canal" x1="0" y1="0" x2="1" y2="0">
      <stop offset="0" stop-color="#075985"/>
      <stop offset="0.55" stop-color="#38bdf8"/>
      <stop offset="1" stop-color="#e0f2fe"/>
    </linearGradient>
    <filter id="glow" x="-40%" y="-40%" width="180%" height="180%">
      <feGaussianBlur stdDeviation="9"/>
    </filter>
    <radialGradient id="fade" cx="0.5" cy="0.5" r="0.75">
      <stop offset="0" stop-color="#081018"/>
      <stop offset="1" stop-color="#04080c"/>
    </radialGradient>
  </defs>
  <rect width="1200" height="360" fill="url(#fade)"/>
  <path d="M 400 150 L 800 150 M 400 230 L 800 230" stroke="url(#canal)" stroke-width="1.6" opacity="0.7" fill="none"/>
  <g stroke="url(#canal)" stroke-width="2" fill="none" opacity="0.9">
    <path d="M 460 138 L 460 242"/>
    <path d="M 560 138 L 560 242"/>
    <path d="M 660 138 L 660 242"/>
  </g>
  <g stroke="#38bdf8" stroke-width="1.3" opacity="0.6" fill="none" stroke-linecap="round">
    <path d="M 412 190 L 448 190"/>
    <path d="M 472 190 L 548 190"/>
    <path d="M 572 190 L 648 190"/>
    <path d="M 672 190 L 788 190"/>
  </g>
  <path d="M 400 150 L 800 150 M 400 230 L 800 230" stroke="url(#canal)" stroke-width="7" opacity="0.25" filter="url(#glow)" fill="none"/>
  <g fill="none" stroke="#e0f2fe" stroke-width="1.6" opacity="0.9">
    <circle cx="460" cy="150" r="7"/>
    <path d="M 457 150 L 459.5 153 L 463.5 147"/>
    <circle cx="560" cy="150" r="7"/>
    <path d="M 557 150 L 559.5 153 L 563.5 147"/>
    <circle cx="660" cy="150" r="7"/>
    <path d="M 657 150 L 659.5 153 L 663.5 147"/>
  </g>
  <path d="M0 306 L 1200 306" fill="none" stroke="url(#canal)" stroke-width="4" opacity="0.22" filter="url(#glow)"/>
  <path d="M0 306 L 1200 306" fill="none" stroke="url(#canal)" stroke-width="0.9" opacity="0.5"/>
</svg>
