<svg xmlns="http://www.w3.org/2000/svg" viewBox="0 0 1200 360" width="1200" height="360">
  <defs>
    <linearGradient id="mint" x1="0" y1="0" x2="1" y2="0">
      <stop offset="0" stop-color="#6ee7b7"/>
      <stop offset="0.55" stop-color="#22d3ee"/>
      <stop offset="1" stop-color="#a5f3fc"/>
    </linearGradient>
    <filter id="glow" x="-40%" y="-40%" width="180%" height="180%">
      <feGaussianBlur stdDeviation="9"/>
    </filter>
    <radialGradient id="fade" cx="0.5" cy="0.5" r="0.75">
      <stop offset="0" stop-color="#081214"/>
      <stop offset="1" stop-color="#04080a"/>
    </radialGradient>
  </defs>
  <rect width="1200" height="360" fill="url(#fade)"/>
  <path d="M0 200 C 60 160, 120 240, 180 200 S 300 160, 360 200 S 480 240, 540 200 S 660 160, 720 200 S 840 240, 900 200 S 1020 160, 1080 200 S 1170 230, 1200 205" fill="none" stroke="url(#mint)" stroke-width="6" opacity="0.5" filter="url(#glow)"/>
  <path d="M0 200 C 60 160, 120 240, 180 200 S 300 160, 360 200 S 480 240, 540 200 S 660 160, 720 200 S 840 240, 900 200 S 1020 160, 1080 200 S 1170 230, 1200 205" fill="none" stroke="url(#mint)" stroke-width="1.5"/>
  <path d="M0 225 C 70 195, 130 255, 200 225 S 330 195, 400 225 S 530 255, 600 225 S 730 195, 800 225 S 930 255, 1000 225 S 1130 200, 1200 222" fill="none" stroke="url(#mint)" stroke-width="4" opacity="0.3" filter="url(#glow)"/>
  <path d="M0 225 C 70 195, 130 255, 200 225 S 330 195, 400 225 S 530 255, 600 225 S 730 195, 800 225 S 930 255, 1000 225 S 1130 200, 1200 222" fill="none" stroke="url(#mint)" stroke-width="1" opacity="0.65"/>
</svg>
