<svg xmlns="http://www.w3.org/2000/svg" viewBox="0 0 1200 360" width="1200" height="360">
  <defs>
    <linearGradient id="chain" x1="0" y1="0" x2="1" y2="0">
      <stop offset="0" stop-color="#3AF4C8"/>
      <stop offset="0.5" stop-color="#5B8DEE"/>
      <stop offset="1" stop-color="#C9B787"/>
    </linearGradient>
    <filter id="glow" x="-40%" y="-40%" width="180%" height="180%">
      <feGaussianBlur stdDeviation="10"/>
    </filter>
    <radialGradient id="fade" cx="0.5" cy="0.5" r="0.75">
      <stop offset="0" stop-color="#0b0e12"/>
      <stop offset="1" stop-color="#050607"/>
    </radialGradient>
  </defs>
  <rect width="1200" height="360" fill="url(#fade)"/>
  <path d="M0 130 C 250 130, 450 170, 640 190 S 860 205, 920 208 L 1200 210" fill="none" stroke="#3AF4C8" stroke-width="5" opacity="0.4" filter="url(#glow)"/>
  <path d="M0 130 C 250 130, 450 170, 640 190 S 860 205, 920 208 L 1200 210" fill="none" stroke="#3AF4C8" stroke-width="1.2" opacity="0.8"/>
  <path d="M0 215 C 250 215, 500 215, 700 212 S 880 210, 920 210 L 1200 210" fill="none" stroke="#5B8DEE" stroke-width="5" opacity="0.4" filter="url(#glow)"/>
  <path d="M0 215 C 250 215, 500 215, 700 212 S 880 210, 920 210 L 1200 210" fill="none" stroke="#5B8DEE" stroke-width="1.2" opacity="0.8"/>
  <path d="M0 300 C 250 300, 450 255, 640 232 S 870 215, 920 212 L 1200 210" fill="none" stroke="#C9B787" stroke-width="5" opacity="0.4" filter="url(#glow)"/>
  <path d="M0 300 C 250 300, 450 255, 640 232 S 870 215, 920 212 L 1200 210" fill="none" stroke="#C9B787" stroke-width="1.2" opacity="0.8"/>
  <path d="M900 210 L 1200 210" fill="none" stroke="url(#chain)" stroke-width="7" opacity="0.7" filter="url(#glow)"/>
  <path d="M900 210 L 1200 210" fill="none" stroke="url(#chain)" stroke-width="1.8"/>
</svg>
