<svg xmlns="http://www.w3.org/2000/svg" viewBox="0 0 1200 360" width="1200" height="360">
  <defs>
    <linearGradient id="loop" x1="0" y1="0" x2="1" y2="1">
      <stop offset="0" stop-color="#92400e"/>
      <stop offset="0.55" stop-color="#fbbf24"/>
      <stop offset="1" stop-color="#fde68a"/>
    </linearGradient>
    <filter id="glow" x="-40%" y="-40%" width="180%" height="180%">
      <feGaussianBlur stdDeviation="9"/>
    </filter>
    <radialGradient id="fade" cx="0.5" cy="0.5" r="0.75">
      <stop offset="0" stop-color="#100d07"/>
      <stop offset="1" stop-color="#060503"/>
    </radialGradient>
  </defs>
  <rect width="1200" height="360" fill="url(#fade)"/>
  <path d="M 705 100 A 95 95 0 1 0 705 260" fill="none" stroke="url(#loop)" stroke-width="9" opacity="0.4" filter="url(#glow)"/>
  <path d="M 705 100 A 95 95 0 1 0 705 260" fill="none" stroke="url(#loop)" stroke-width="2" opacity="0.95"/>
  <path d="M 705 100 L 742 88 M 705 100 L 736 116" stroke="#fde68a" stroke-width="2.4" opacity="0.9" stroke-linecap="round"/>
  <g stroke="#fbbf24" stroke-width="2" opacity="0.7" stroke-linecap="round">
    <path d="M 600 78 L 600 96"/>
    <path d="M 522 116 L 534 128"/>
    <path d="M 495 180 L 513 180"/>
    <path d="M 522 244 L 534 232"/>
  </g>
  <path d="M 705 260 L 748 272" stroke="#92400e" stroke-width="1.6" opacity="0.7" stroke-dasharray="3 6" stroke-linecap="round"/>
  <circle cx="705" cy="260" r="6" fill="#fbbf24" opacity="0.9"/>
  <circle cx="705" cy="260" r="6" fill="#fbbf24" opacity="0.5" filter="url(#glow)"/>
  <path d="M0 322 L 1200 322" fill="none" stroke="url(#loop)" stroke-width="4" opacity="0.22" filter="url(#glow)"/>
  <path d="M0 322 L 1200 322" fill="none" stroke="url(#loop)" stroke-width="0.9" opacity="0.5"/>
</svg>
